<svg xmlns="http://www.w3.org/2000/svg" viewBox="0 0 512 512" width="512" height="512" role="img" aria-label="Légendes app icon">
  <defs>
    <linearGradient id="g" x1="0" y1="0" x2="0" y2="1">
      <stop offset="0" stop-color="#3b82f6"/><stop offset="1" stop-color="#1e3a8a"/>
    </linearGradient>
  </defs>
  <rect x="32" y="32" width="448" height="448" rx="104" fill="url(#g)"/>
  <!-- play -->
  <path d="M214 132 L350 210 a15 15 0 0 1 0 26 L214 314 a15 15 0 0 1 -23 -13 L191 145 a15 15 0 0 1 23 -13 Z" fill="#fff"/>
  <!-- timeline segments (the "sections", with one gap in orange) -->
  <rect x="120" y="368" width="120" height="34" rx="10" fill="#ffffff" fill-opacity="0.95"/>
  <rect x="248" y="368" width="62" height="34" rx="10" fill="#ffffff" fill-opacity="0.45"/>
  <rect x="318" y="368" width="46" height="34" rx="10" fill="#fbbf24"/>
  <rect x="372" y="368" width="20" height="34" rx="8" fill="#ffffff" fill-opacity="0.45"/>
</svg>
